<?xml version="1.0" encoding="utf-8"?>
<!-- Generator: Adobe Illustrator 24.0.1, SVG Export Plug-In . SVG Version: 6.00 Build 0)  -->
<svg version="1.1" id="Layer_1" xmlns="http://www.w3.org/2000/svg" xmlns:xlink="http://www.w3.org/1999/xlink" x="0px" y="0px"
	 viewBox="0 0 226.8 226.8" style="enable-background:new 0 0 226.8 226.8;" xml:space="preserve">
<style type="text/css">
	.st0{fill:url(#SVGID_1_);}
	.st1{fill:url(#SVGID_2_);}
	.st2{fill:url(#SVGID_3_);}
	.st3{fill:url(#SVGID_4_);}
	.st4{fill:url(#SVGID_5_);}
	.st5{fill:url(#SVGID_6_);}
</style>
<g>
	<linearGradient id="SVGID_1_" gradientUnits="userSpaceOnUse" x1="108.6821" y1="117.5572" x2="90.4087" y2="107.007">
		<stop  offset="0" style="stop-color:#2CA8FF"/>
		<stop  offset="0.2691" style="stop-color:#31A5F1"/>
		<stop  offset="0.6564" style="stop-color:#3B9ED6"/>
	</linearGradient>
	<path class="st0" d="M122.2,51.9v37.5l-42,72.7l-0.8,1.5c0,0.1-0.1,0.1-0.1,0.2h0c-1.3,2.7-2.2,5.7-2.4,8.8h0v-36.5l40.7-70.4
		C120.5,61.9,122.2,57.1,122.2,51.9z"/>
	<linearGradient id="SVGID_2_" gradientUnits="userSpaceOnUse" x1="159.0648" y1="160.5689" x2="146.8038" y2="160.5689">
		<stop  offset="0" style="stop-color:#2CA8FF"/>
		<stop  offset="0.2691" style="stop-color:#31A5F1"/>
		<stop  offset="0.6564" style="stop-color:#3B9ED6"/>
	</linearGradient>
	<path class="st1" d="M159.1,147.7l-8.2,14.1c-2.3,3.3-3.8,7.3-4.1,11.5h0v-25.7H159.1z"/>
	<linearGradient id="SVGID_3_" gradientUnits="userSpaceOnUse" x1="199.8606" y1="89.0814" x2="178.3412" y2="76.6572">
		<stop  offset="0" style="stop-color:#2CA8FF"/>
		<stop  offset="0.41" style="stop-color:#31A5F1"/>
		<stop  offset="1" style="stop-color:#3B9ED6"/>
	</linearGradient>
	<path class="st2" d="M192.2,52.6v49.7h-25l22.2-38.5l-0.1-0.1C191.2,60.4,192.2,56.7,192.2,52.6z"/>
	<linearGradient id="SVGID_4_" gradientUnits="userSpaceOnUse" x1="192.2241" y1="113.379" x2="76.8194" y2="113.379">
		<stop  offset="0" style="stop-color:#94FFF1"/>
		<stop  offset="0.6564" style="stop-color:#15B3FF"/>
		<stop  offset="1" style="stop-color:#3386AA"/>
	</linearGradient>
	<path class="st3" d="M189.3,63.7l0.1,0.1l-22.2,38.5h-24.8c-8.2,0-16.2,4.5-20.2,12.3c0,0,0,0,0,0c-3.5,6.7-3.2,14.4,0,20.7
		c2.1,4.1,5.4,7.6,9.8,9.9c2.9,1.5,5.9,2.3,9,2.5L119.5,185l-0.5,0.9c-0.1,0.2-0.3,0.4-0.4,0.6c-4,6.2-11.1,10.3-19,10.3
		c-12.5,0-22.7-10.2-22.7-22.7c0-0.5,0-1,0-1.5c0.2-3.2,1.1-6.2,2.4-8.8h0c0-0.1,0.1-0.1,0.1-0.2l0.8-1.5l42-72.7l26.4-45.7l0,0
		c3.5-8.1,11.5-13.8,20.9-13.8c12.5,0,22.7,10.2,22.7,22.7C192.2,56.7,191.2,60.4,189.3,63.7z"/>
	<linearGradient id="SVGID_5_" gradientUnits="userSpaceOnUse" x1="122.2397" y1="113.382" x2="5.6572" y2="113.382">
		<stop  offset="0" style="stop-color:#94FFF1"/>
		<stop  offset="0.6564" style="stop-color:#15B3FF"/>
		<stop  offset="1" style="stop-color:#3386AA"/>
	</linearGradient>
	<path class="st4" d="M122.2,51.9c0,5.2-1.8,10-4.7,13.9l-40.7,70.4l-27.9,48.3c0,0,0,0,0,0.1c-0.1,0.3-0.2,0.5-0.3,0.7
		c-5.7,11.1-19.4,15.5-30.6,9.8c-11.2-5.7-15.6-19.4-9.8-30.6c0.2-0.4,0.5-0.9,0.7-1.3l-0.1-0.1L79.7,40.4l0.2,0.1
		c3.9-6.8,11.3-11.4,19.7-11.4C112.1,29.2,122.2,39.3,122.2,51.9z"/>
	<linearGradient id="SVGID_6_" gradientUnits="userSpaceOnUse" x1="205.7199" y1="100.2097" x2="134.2203" y2="171.7094">
		<stop  offset="0" style="stop-color:#94FFF1"/>
		<stop  offset="0.1304" style="stop-color:#90FDF1"/>
		<stop  offset="0.2553" style="stop-color:#85F6F3"/>
		<stop  offset="0.378" style="stop-color:#71EAF5"/>
		<stop  offset="0.4994" style="stop-color:#56DAF8"/>
		<stop  offset="0.6186" style="stop-color:#34C5FC"/>
		<stop  offset="0.7067" style="stop-color:#15B3FF"/>
		<stop  offset="0.8233" style="stop-color:#20A3E0"/>
		<stop  offset="1" style="stop-color:#3386AA"/>
	</linearGradient>
	<path class="st5" d="M218.6,135.4c-0.5,0.9-1,1.8-1.6,2.7l0.1,0l-28,48.5l-0.1,0c-4,6.7-11.2,11.1-19.5,11.1
		c-12.5,0-22.7-10.2-22.7-22.7c0-0.5,0-1,0-1.5c0.3-4.3,1.7-8.2,4.1-11.5l8.2-14.1h-16.6c-0.5,0-0.9,0-1.4,0c-3-0.2-6.1-1-9-2.5
		c-4.4-2.3-7.8-5.8-9.8-9.9c-3.2-6.3-3.5-13.9,0-20.7c0,0,0,0,0,0c4-7.8,12-12.3,20.2-12.3h55.9c3.5,0,7.1,0.8,10.4,2.5
		C219.9,110.5,224.3,124.2,218.6,135.4z"/>
</g>
</svg>
